<?xml version="1.0" standalone="no"?>
<!DOCTYPE svg PUBLIC "-//W3C//DTD SVG 20010904//EN"
 "http://www.w3.org/TR/2001/REC-SVG-20010904/DTD/svg10.dtd">
<svg version="1.0" xmlns="http://www.w3.org/2000/svg"
 width="700.000000pt" height="700.000000pt" viewBox="0 0 700.000000 700.000000"
 preserveAspectRatio="xMidYMid meet">
<metadata>
Created by potrace 1.11, written by Peter Selinger 2001-2013
</metadata>
<g transform="translate(0.000000,700.000000) scale(0.100000,-0.100000)"
fill="#000000" stroke="none">
<path d="M3298 6705 c-2 -2 -37 -6 -79 -9 -42 -4 -86 -8 -97 -11 -12 -2 -47
-6 -79 -10 -50 -5 -107 -15 -223 -38 -145 -29 -409 -112 -535 -167 -22 -10
-65 -28 -95 -41 -94 -39 -274 -135 -387 -206 -646 -406 -1124 -1018 -1356
-1738 -58 -180 -103 -372 -122 -521 -2 -21 -7 -50 -9 -64 -20 -103 -27 -506
-13 -685 5 -54 10 -102 12 -105 2 -3 6 -32 9 -65 4 -33 9 -67 11 -75 2 -8 6
-33 10 -55 8 -57 51 -234 81 -335 106 -353 278 -697 496 -988 108 -145 159
-203 313 -357 142 -143 175 -173 255 -235 25 -19 47 -37 50 -40 27 -28 210
-151 334 -224 233 -137 433 -225 681 -301 66 -20 127 -38 135 -40 132 -31 245
-55 285 -60 45 -5 81 -11 140 -21 137 -25 612 -24 770 1 17 3 44 7 60 10 17 2
54 7 83 11 45 5 102 18 316 69 62 15 237 73 336 112 285 113 543 261 810 467
124 97 378 345 483 472 249 306 439 645 563 1007 38 114 90 301 100 362 3 22
8 43 10 46 3 5 15 74 29 174 4 22 8 51 10 64 20 117 26 508 12 666 -13 138
-17 165 -43 313 -2 12 -6 32 -8 45 -2 12 -14 63 -26 112 -12 50 -23 97 -25
105 -2 8 -20 67 -40 130 -161 499 -437 945 -806 1307 -122 119 -141 136 -282
246 -454 355 -1004 582 -1577 651 -25 3 -67 9 -95 12 -51 6 -492 14 -497 9z
m423 -589 c514 -46 999 -236 1399 -550 131 -103 312 -280 409 -401 31 -38 59
-72 62 -75 29 -26 188 -281 251 -405 120 -235 222 -551 252 -785 3 -25 8 -54
10 -65 25 -126 25 -448 0 -670 -5 -43 -47 -270 -59 -315 -133 -512 -427 -985
-825 -1331 -380 -330 -884 -561 -1345 -615 -27 -4 -53 -8 -56 -10 -26 -15
-367 -22 -522 -10 -231 17 -567 92 -722 160 -16 8 -41 17 -55 21 -14 4 -89 38
-167 76 -725 350 -1267 1045 -1422 1824 -11 55 -23 120 -26 145 -3 25 -8 52
-10 60 -23 92 -23 545 1 663 2 12 7 42 10 67 3 25 15 86 25 135 11 50 22 104
25 120 3 17 26 89 50 162 137 412 352 757 663 1062 80 79 128 120 266 229 30
24 176 122 215 144 152 87 199 110 341 171 183 78 443 150 624 173 28 3 59 8
70 10 11 2 61 7 110 10 50 3 91 7 92 8 5 4 269 -2 334 -8z"/>
<path d="M3355 4658 c-87 -10 -212 -43 -284 -75 -29 -12 -57 -23 -62 -23 -5 0
-47 -23 -94 -50 -145 -86 -266 -197 -368 -337 -67 -92 -148 -264 -173 -368 -1
-5 -8 -32 -14 -60 -36 -151 -31 -379 12 -540 183 -682 917 -1050 1566 -784
262 107 470 298 603 554 123 236 158 551 89 815 -146 566 -691 937 -1275 868z
m337 -609 c259 -87 421 -354 385 -634 -11 -78 -61 -203 -105 -257 -110 -136
-240 -215 -387 -234 -262 -33 -499 94 -609 327 -127 267 -37 583 210 739 151
95 335 117 506 59z"/>
</g>
</svg>
